<?xml version="1.0" encoding="UTF-8"?>
<svg id="Layer_1" data-name="Layer 1" xmlns="http://www.w3.org/2000/svg" viewBox="0 0 421.59 284.3">
  <defs>
    <style>
      .cls-1, .cls-2, .cls-3, .cls-4 {
        stroke: #fff;
        stroke-miterlimit: 10;
      }

      .cls-1, .cls-5 {
        fill: #fff6d2;
      }

      .cls-2 {
        fill: #f0e7d5;
      }

      .cls-6, .cls-5 {
        font-family: MyriadPro-Regular, 'Myriad Pro';
        font-size: 12px;
      }

      .cls-6, .cls-4 {
        fill: #212842;
      }

      .cls-3 {
        fill: #799cf0;
      }
    </style>
  </defs>
  <path class="cls-2" d="M1.72,269.41L.74,40.39c4.51-18.3,14.78-16.63,14.78-16.63l254.7-1.49C279.46,3.25,289.91.05,289.91.05c0,0,30.95-.21,43.81,0s15.87,8.12,15.87,8.12l.17,13,56.76-.25c15.7-1.9,14.13,5.63,14.26,7.88,0,0,.18,210.89,0,235.11-.18,24.22-19.48,18.08-19.48,18.08l-389.74.69s-9.77,4.8-9.84-13.27h0Z"/>
  <text class="cls-6" transform="translate(327.9 16.1)"><tspan x="0" y="0">02</tspan></text>
  <path class="cls-1" d="M418.82,31.44l-.5-20.32s-5.15-11.28-16.44-7.61l-45.14-.98s-10.3-1.23-10.55,8.34c-.25,9.57.25,13.25.25,13.25l-321.89-.83s-16.94-1.69-20.33,8.15-2.05,6.91-2.05,6.91l-.91,231.98s-.87,14.86,18.07,13.2l381.51-.63s20.38,1.45,19.48-18.08c-.79-16.96-1.51-233.39-1.51-233.39h0Z"/>
  <text class="cls-6" transform="translate(397.42 16.1)"><tspan x="0" y="0">01</tspan></text>
  <path class="cls-3" d="M419.8,273.3c-1.25,8.97-18.24,9.11-18.24,9.11l-381.55.22c-22.41,2.27-18.06-14.94-18.06-14.94l.89-226.88c.33-19.01,16.94-18.44,16.94-18.44l115.88-.42,1.77-2.91,6.37-10.08c6.37-10.08,9.55-8.49,9.55-8.49h45.63c16.98,0,19.63,22.26,19.63,22.26,0,0,172.44.56,187.62.03s13.71,7.54,13.71,7.54l-.15,243.01h.01Z"/>
  <text class="cls-6" transform="translate(194.02 16.1)"><tspan x="0" y="0">04</tspan></text>
  <path class="cls-4" d="M419.73,31.01s-.18-6.69-5.64-6.74c-6.13-.05-132.84-.58-132.84-.58,0,0,2.71-20.92-9-21.59s-51,0-51,0c0,0-5.02-.66-7.8,9.65l-2.79,10.31-194.36,2.18c-.86-.5-11.1-.32-13.5,18.03l-1.04,228.16s-4.35,18.61,18.03,12.79l381.55-.22s16.99-.13,18.24-9.11.15-242.89.15-242.89h0Z"/>
  <text class="cls-5" transform="translate(259.63 16.1)"><tspan x="0" y="0">03</tspan></text>
</svg>