<?xml version="1.0" encoding="UTF-8"?>
<svg id="Layer_1" data-name="Layer 1" xmlns="http://www.w3.org/2000/svg" viewBox="0 0 419.85 283.54">
  <defs>
    <style>
      .cls-1 {
        fill: #fff6d2;
      }

      .cls-1, .cls-2, .cls-3, .cls-4 {
        stroke: #fff;
        stroke-miterlimit: 10;
      }

      .cls-2 {
        fill: #f0e7d5;
      }

      .cls-5 {
        fill: #fcf5d5;
      }

      .cls-6 {
        isolation: isolate;
      }

      .cls-3 {
        fill: #799cf0;
      }

      .cls-7 {
        fill: #221f20;
      }

      .cls-4 {
        fill: #212842;
      }
    </style>
  </defs>
  <g>
    <path class="cls-3" d="M417.84,273.21c-1.25,8.97-18.24,9.11-18.24,9.11l-381.55.22C-5.79,286.7.02,269.74.02,269.74L-.41,40.57c2.72-22.77,18.23-19.14,18.23-19.14l115.88.43,1.77-2.91,6.37-10.08c6.37-10.08,9.55-8.49,9.55-8.49h45.63c16.98,0,19.63,22.26,19.63,22.26,0,0,172.44.56,187.62.03s13.71,7.54,13.71,7.54l-.15,243.01Z"/>
    <g class="cls-6">
      <g class="cls-6">
        <g class="cls-6">
          <path class="cls-7" d="M185.04,12.56c0-1.52.16-2.75.47-3.68.31-.93.78-1.64,1.4-2.15s1.4-.76,2.33-.76c.69,0,1.3.14,1.82.42s.95.68,1.29,1.2c.34.53.61,1.16.8,1.92.19.75.29,1.77.29,3.05,0,1.51-.15,2.73-.46,3.66s-.78,1.65-1.39,2.15c-.62.51-1.4.76-2.34.76-1.24,0-2.22-.45-2.93-1.34-.85-1.07-1.28-2.82-1.28-5.24ZM186.66,12.56c0,2.12.25,3.52.74,4.22s1.11,1.05,1.83,1.05,1.34-.35,1.83-1.05.74-2.11.74-4.22-.25-3.53-.74-4.23-1.11-1.05-1.85-1.05-1.31.31-1.74.92c-.54.79-.82,2.24-.82,4.35Z"/>
          <path class="cls-7" d="M200.12,18.91v-3.08h-5.59v-1.45l5.88-8.35h1.29v8.35h1.74v1.45h-1.74v3.08h-1.58ZM200.12,14.37v-5.81l-4.03,5.81h4.03Z"/>
        </g>
      </g>
    </g>
  </g>
  <path class="cls-2" d="M.84,269.54L-.14,40.52c4.51-18.3,14.78-16.63,14.78-16.63l254.7-1.49C278.58,3.38,289.03.18,289.03.18c0,0,30.95-.21,43.81,0,12.86.21,15.87,8.12,15.87,8.12l.17,13,56.76-.25c15.7-1.9,14.13,5.63,14.26,7.88,0,0,.18,210.89,0,235.11s-19.48,18.08-19.48,18.08l-389.74.69s-9.77,4.8-9.84-13.27Z"/>
  <g class="cls-6">
    <g class="cls-6">
      <g class="cls-6">
        <path class="cls-7" d="M318.1,12.36c0-1.52.16-2.75.47-3.68.31-.93.78-1.64,1.4-2.15s1.4-.76,2.33-.76c.69,0,1.3.14,1.82.42s.95.68,1.29,1.2c.34.53.61,1.16.8,1.92.19.75.29,1.77.29,3.05,0,1.51-.16,2.73-.47,3.66s-.77,1.65-1.39,2.15c-.62.51-1.4.76-2.34.76-1.24,0-2.22-.45-2.93-1.34-.85-1.07-1.27-2.82-1.27-5.24ZM319.73,12.36c0,2.12.25,3.52.74,4.22s1.11,1.05,1.83,1.05,1.34-.35,1.83-1.05.74-2.11.74-4.22-.25-3.53-.74-4.23-1.11-1.05-1.85-1.05-1.31.31-1.74.92c-.54.79-.82,2.24-.82,4.35Z"/>
        <path class="cls-7" d="M336.43,17.19v1.52h-8.52c-.01-.38.05-.75.18-1.1.22-.58.56-1.15,1.04-1.71s1.17-1.21,2.07-1.95c1.4-1.15,2.35-2.06,2.84-2.73s.74-1.31.74-1.9c0-.63-.22-1.16-.67-1.59-.45-.43-1.03-.65-1.75-.65-.76,0-1.37.23-1.83.69s-.69,1.09-.69,1.9l-1.63-.17c.11-1.21.53-2.14,1.26-2.77.73-.63,1.7-.95,2.93-.95s2.21.34,2.94,1.03,1.08,1.54,1.08,2.55c0,.52-.11,1.02-.32,1.52s-.56,1.02-1.05,1.57-1.3,1.31-2.44,2.27c-.95.8-1.56,1.34-1.83,1.62s-.49.57-.67.86h6.32Z"/>
      </g>
    </g>
  </g>
  <g>
    <path class="cls-1" d="M417.99,30.48l-.5-20.32s-5.15-11.28-16.44-7.61l-45.14-.98s-10.3-1.23-10.55,8.34c-.25,9.57.25,13.25.25,13.25l-321.89-.83s-16.94-1.69-20.33,8.15-2.05,6.91-2.05,6.91l-.91,231.98s-2.76,16.74,18.66,11.58l380.92.99s20.31-1.12,19.48-18.08-1.51-233.39-1.51-233.39Z"/>
    <g class="cls-6">
      <g class="cls-6">
        <path class="cls-7" d="M389.1,12.84c0-1.52.16-2.75.47-3.68.31-.93.78-1.64,1.4-2.15s1.4-.76,2.33-.76c.69,0,1.3.14,1.82.42s.95.68,1.29,1.2c.34.53.61,1.16.8,1.92.19.75.29,1.77.29,3.05,0,1.51-.16,2.73-.47,3.66s-.78,1.65-1.39,2.15c-.62.51-1.4.76-2.34.76-1.24,0-2.22-.45-2.93-1.34-.85-1.07-1.27-2.82-1.27-5.24ZM390.73,12.84c0,2.12.25,3.52.74,4.22s1.11,1.05,1.83,1.05,1.34-.35,1.83-1.05.74-2.11.74-4.22-.25-3.53-.74-4.23-1.11-1.05-1.85-1.05-1.31.31-1.74.92c-.54.79-.82,2.24-.82,4.35Z"/>
        <path class="cls-7" d="M405.07,19.19h-1.58v-10.08c-.38.36-.88.73-1.5,1.09s-1.17.64-1.67.82v-1.53c.88-.42,1.66-.92,2.32-1.51s1.13-1.17,1.41-1.72h1.02v12.94Z"/>
      </g>
    </g>
  </g>
  <g>
    <path class="cls-4" d="M418.9,29.7s.67-9.18-4.79-9.23c-6.13-.05-133.21.56-133.21.56,0,0,2.23-19.57-9.48-20.24s-51,0-51,0c0,0-5.02-.66-7.8,9.65l-2.79,10.31-196.13.11c-.86-.5-10.8.86-13.2,19.21l.43,229.05s-4.35,18.61,18.03,12.79l381.55-.22s16.99-.13,18.24-9.11.15-242.89.15-242.89Z"/>
    <g class="cls-6">
      <g class="cls-6">
        <g class="cls-6">
          <path class="cls-5" d="M255.36,11.94c0-1.52.16-2.75.47-3.68.31-.93.78-1.64,1.4-2.15s1.4-.76,2.33-.76c.69,0,1.3.14,1.82.42s.95.68,1.29,1.2c.34.53.61,1.16.8,1.92.19.75.29,1.77.29,3.05,0,1.51-.16,2.73-.47,3.66s-.78,1.65-1.39,2.15c-.62.51-1.4.76-2.34.76-1.24,0-2.22-.45-2.93-1.34-.85-1.07-1.27-2.82-1.27-5.24ZM256.99,11.94c0,2.12.25,3.52.74,4.22s1.11,1.05,1.83,1.05,1.34-.35,1.83-1.05.74-2.11.74-4.22-.25-3.53-.74-4.23-1.11-1.05-1.85-1.05-1.31.31-1.74.92c-.54.79-.82,2.24-.82,4.35Z"/>
          <path class="cls-5" d="M265.38,14.89l1.58-.21c.18.9.49,1.54.93,1.94.44.39.97.59,1.6.59.74,0,1.37-.26,1.88-.77s.77-1.15.77-1.92-.24-1.33-.71-1.8c-.47-.47-1.08-.71-1.81-.71-.3,0-.67.06-1.12.18l.18-1.39c.11.01.19.02.25.02.67,0,1.28-.18,1.82-.53s.81-.89.81-1.63c0-.58-.2-1.06-.59-1.44s-.9-.57-1.52-.57-1.13.19-1.54.58-.67.97-.79,1.74l-1.58-.28c.19-1.06.63-1.88,1.32-2.46s1.54-.88,2.56-.88c.7,0,1.35.15,1.94.45s1.04.71,1.36,1.23.47,1.08.47,1.66-.15,1.06-.45,1.52-.74.82-1.33,1.09c.76.18,1.35.54,1.78,1.09.42.55.63,1.25.63,2.08,0,1.12-.41,2.08-1.23,2.86-.82.78-1.86,1.17-3.11,1.17-1.13,0-2.07-.34-2.82-1.01s-1.17-1.55-1.28-2.62Z"/>
        </g>
      </g>
    </g>
  </g>
</svg>