<?xml version="1.0" encoding="UTF-8"?>
<svg id="Layer_1" data-name="Layer 1" xmlns="http://www.w3.org/2000/svg" viewBox="0 0 420.15 564.7">
  <defs>
    <style>
      .cls-1 {
        fill: #212842;
        stroke: #fff;
        stroke-miterlimit: 10;
      }
    </style>
  </defs>
  <path class="cls-1" d="M13.7,20.77c-.9-.5-10.8.9-13.2,19.2l.9,497.2s-8.3,31.5,26.4,26.4l373.2.6s19.8,1.9,18.6-23.5c-1.2-25.4-.6-511.1-.6-511.1,0,0,.7-9.2-4.8-9.2s-133.2.6-133.2.6c0,0,2.2-19.6-9.5-20.2s-51,0-51,0c0,0-5-.7-7.8,9.6l-2.8,10.3H13.8c0,.1,0,0,0,0l-.1.1Z"/>
</svg>