<?xml version="1.0" encoding="UTF-8"?>
<svg id="Layer_1" xmlns="http://www.w3.org/2000/svg" version="1.1" viewBox="0 0 417.7 283.4">
  <!-- Generator: Adobe Illustrator 29.5.1, SVG Export Plug-In . SVG Version: 2.1.0 Build 141)  -->
  <defs>
    <style>
      .st0 {
        fill: #fff6d2;
      }

      .st0, .st1, .st2, .st3, .st4 {
        stroke-miterlimit: 10;
      }

      .st0, .st1, .st2, .st4 {
        stroke: #fff;
      }

      .st1 {
        fill: #f0e7d5;
      }

      .st2 {
        fill: #799cf0;
      }

      .st3 {
        fill: none;
        stroke: #799cf0;
        stroke-width: 3px;
      }

      .st4 {
        fill: #212842;
      }
    </style>
  </defs>
  <path class="st1" d="M-535,290.3l-1-229c4.5-18.3,14.8-16.6,14.8-16.6l254.7-1.5c9.2-19,19.7-22.2,19.7-22.2,0,0,31-.2,43.8,0s15.9,8.1,15.9,8.1l.2,13,56.8-.2c15.7-1.9,14.1,5.6,14.3,7.9,0,0,.2,210.9,0,235.1s-19.5,18.1-19.5,18.1l-389.7.7s-9.8,4.8-9.8-13.3h-.2Z"/>
  <path class="st0" d="M-117.9,52.4l-.5-20.3s-5.1-11.3-16.4-7.6l-45.1-1s-10.3-1.2-10.5,8.3c-.2,9.6.2,13.2.2,13.2l-321.9-.8s-16.9-1.7-20.3,8.1c-3.4,9.8-2,6.9-2,6.9l-.9,232s-.9,14.9,18.1,13.2l381.5-.6s20.4,1.4,19.5-18.1c-.8-17-1.5-233.4-1.5-233.4h-.2Z"/>
  <path class="st2" d="M417.1,273.4c-1.2,9-16.7,9.1-16.7,9.1l-381.5.2c-22.4,2.3-18.1-14.9-18.1-14.9L1.7,40.9c.3-19,16.9-18.4,16.9-18.4l115.9-.4,1.8-2.9,6.4-10.1c6.4-10.1,9.6-8.5,9.6-8.5h45.6c17,0,19.6,22.3,19.6,22.3,0,0,172.4.6,187.6,0s11.4,8,11.4,8l.6,242.5c0,0,0,0,0,0h0Z"/>
  <path class="st4" d="M496.8-585.1s.8-6.4-4.6-6.5c-6.1,0-132.8-.6-132.8-.6,0,0,2.7-20.9-9-21.6s-51,0-51,0c0,0-5-.7-7.8,9.6l-2.8,12.8-194.7.8c-4.2,0-10.7-1.4-13.1,16.9l-1,228.2s-.3,14.1,18,12.8l381.6-.9s16.7,1.1,17-8,.3-243.6.3-243.6h0Z"/>
  <path class="st3" d="M534,187.9s9.5,19.5,22.7,0-27.6-6.3-22.7,0Z"/>
  <path class="st3" d="M513.7,209.9s3.5,11.3,13.5,1.7-17.8-13.6-13.5-1.7Z"/>
  <path class="st3" d="M556.4,198.3s30.8-.9,24.1-11.2-11.6-11.4-11.6-11.4c0,0-13.8-1.6,0-6.3s-14.1,1.6-3.6-4.6"/>
  <path class="st1" d="M1362.5,305.1l-.5-270.9c2.5-21.6,8.1-19.7,8.1-19.7l140.1-1.8c5.1-22.5,8-18.8,8-18.8,0,0,20.3-.6,27.4-.4s8.3,2.5,8.3,2.5v15.4l31.3-.3c8.6-2.2,7.8,6.7,7.8,9.3v278.1c0,28.7-10.7,21.4-10.7,21.4l-214.4.8s-5.4,5.7-5.4-15.7h0Z"/>
  <path class="st0" d="M2075.5-361.7l-.3-24.1s1.1-4.8-9.4-4.1l-24.8.8s-5.3.4-5.4,3.1c-.7,11.3.1,15.7.1,15.7l-177.1-1s-9.3-2-11.2,9.7-1.1,8.2-1.1,8.2l-.5,275.1s-.5,17.6,9.9,15.7l209.9-.7s11.2,1.7,10.7-21.4c-.4-20.1-.8-276.7-.8-276.7h0v-.3Z"/>
  <path class="st4" d="M1751.3-529s.5-7.7-2.5-7.7c-3.5-1.2-73,0-73.1-.7,0,0,2.4-18.4-4.1-19.2-6.4-.8-30.5-.4-30.5-.4,0,0-3.3-.7-2.8,5.4l-1.5,15.2-107.1.9c-2.3.2-5.9-1.7-7.2,20.1l-.6,271s-.2,16.8,10,14.2l210-1.1s9.1,2.3,9.2-8.5c.2-10.4.2-289.3.2-289.3h0Z"/>
  <path class="st2" d="M1459.2-215.5c-.7,10.6-10,10.7-10,10.7l-209.9.3c-12.3,2.7-9.9-17.6-9.9-17.6l.5-267.5c.2-22.4,9.3-21.7,9.3-21.7l63.8-.5,1-3.4,3.5-11.9c1.1-3.5,2.8-4.4,2.8-4.4h29.1c9.3,0,9.3,20.6,9.3,20.6,0,0,94.9.7,103.2,0s7.5,8.9,7.5,8.9V-215.4h-.2Z"/>
</svg>