<?xml version="1.0" encoding="UTF-8"?>
<svg id="Layer_1" xmlns="http://www.w3.org/2000/svg" version="1.1" viewBox="0 0 420.6 565.6">
  <!-- Generator: Adobe Illustrator 29.5.1, SVG Export Plug-In . SVG Version: 2.1.0 Build 141)  -->
  <defs>
    <style>
      .st0, .st1, .st2, .st3 {
        stroke: #fff;
        stroke-miterlimit: 10;
      }

      .st0, .st4 {
        fill: #fff6d2;
      }

      .st1 {
        fill: #f0e7d5;
      }

      .st5, .st4, .st6 {
        isolation: isolate;
      }

      .st4, .st6 {
        font-family: ArialMT, Arial;
        font-size: 18px;
      }

      .st2 {
        fill: #799cf0;
      }

      .st3 {
        fill: #212842;
      }
    </style>
  </defs>
  <path class="st2" d="M1,40.8l.9,497.2s-8.3,31.5,26.4,26.4l373.2.6s19.8,1.9,18.6-23.5c-1.2-25.4-.6-511.1-.6-511.1,0,0,1.5-8.1-13.7-7.5s-187.6,0-187.6,0c0,0-2.6-22.3-19.6-22.3h-45.6s-3.2-1.6-9.6,8.5l-6.4,10.1-1.8,2.9-115.9-.4S3.8,18,1,40.8Z"/>
  <path class="st0" d="M269.5,23.3l-253.8,1.4s-10.2-1.6-14.7,15.6l.9,497.2s-8.3,31.5,26.4,26.4l373.2.6s19.8,1.9,18.6-23.5c-1.2-25.4-.6-511.1-.6-511.1l-.5-20.3s-5.1-11.3-16.4-7.6l-45.1-1s-10.3-1.2-10.5,8.3c-.2,9.6.2,13.2.2,13.2l-77.5.7h-.2Z"/>
  <path class="st3" d="M14.2,21.7c-.9-.5-10.8.9-13.2,19.2l.9,497.2s-8.3,31.5,26.4,26.4l373.2.6s19.8,1.9,18.6-23.5c-1.2-25.4-.6-511.1-.6-511.1,0,0,.7-9.2-4.8-9.2s-133.2.6-133.2.6c0,0,2.2-19.6-9.5-20.2s-51,0-51,0c0,0-5-.7-7.8,9.6l-2.8,10.3H14.3c0,.1,0,0,0,0Z"/>
  <path class="st1" d="M1.4,535.6s-8.3,31.5,26.4,26.4l373.2.6s19.8,1.9,18.6-23.5-.5-511.6-.5-511.6c-.1-2.1,1.4-9.2-14.2-7.4l-56.6.2-.2-12.2s-3-7.4-15.8-7.6-43.6,0-43.6,0c0,0-10.4,3-19.6,20.8l-253.8,1.4s-10.2-1.6-14.7,15.6l.9,497.2h0Z"/>
  <g class="st5">
    <text class="st6" transform="translate(395.2 17.1)"><tspan x="0" y="0">01</tspan></text>
  </g>
  <g class="st5">
    <text class="st6" transform="translate(324.4 17.1)"><tspan x="0" y="0">02</tspan></text>
  </g>
  <g class="st5">
    <text class="st4" transform="translate(251.5 17.3)"><tspan x="0" y="0">03</tspan></text>
  </g>
  <g class="st5">
    <text class="st6" transform="translate(189.7 17.3)"><tspan x="0" y="0">04</tspan></text>
  </g>
</svg>